<svg width="296" height="201" viewBox="0 0 296 201" fill="none" xmlns="http://www.w3.org/2000/svg">
<path d="M10.5714 36.9184H285.429C291.267 36.9184 296 33.2455 296 28.7143V8.20408C296 3.67286 291.267 0 285.429 0H10.5714C4.7327 0 0 3.67286 0 8.20408V28.7143C0 33.2455 4.7327 36.9184 10.5714 36.9184ZM10.5714 118.959H285.429C291.267 118.959 296 115.286 296 110.755V90.2449C296 85.7137 291.267 82.0408 285.429 82.0408H10.5714C4.7327 82.0408 0 85.7137 0 90.2449V110.755C0 115.286 4.7327 118.959 10.5714 118.959ZM10.5714 201H285.429C291.267 201 296 197.327 296 192.796V172.286C296 167.754 291.267 164.082 285.429 164.082H10.5714C4.7327 164.082 0 167.754 0 172.286V192.796C0 197.327 4.7327 201 10.5714 201Z" fill="white"/>
</svg>
